<svg width="158" height="36" viewBox="0 0 158 36" fill="none" xmlns="http://www.w3.org/2000/svg">
    <path d="M19.575 9.1C19.575 10.5167 19.2083 11.8167 18.475 13C17.7417 14.1833 16.675 15.15 15.275 15.9C13.875 16.65 12.2083 17.0917 10.275 17.225L9.2 23.25C8.78333 25.5667 7.65 26.725 5.8 26.725C4.78333 26.725 3.84167 26.425 2.975 25.825C2.125 25.225 1.44167 24.3083 0.925 23.075C0.408333 21.8417 0.15 20.325 0.15 18.525C0.15 15.1417 0.691667 12.275 1.775 9.925C2.875 7.55833 4.34167 5.79167 6.175 4.625C8.025 3.44167 10.0583 2.85 12.275 2.85C13.8417 2.85 15.1667 3.125 16.25 3.675C17.35 4.225 18.175 4.975 18.725 5.925C19.2917 6.85833 19.575 7.91667 19.575 9.1ZM10.725 14.65C14.1417 14.2167 15.85 12.4417 15.85 9.325C15.85 8.225 15.4833 7.33333 14.75 6.65C14.0333 5.95 12.9167 5.6 11.4 5.6C9.68333 5.6 8.18333 6.14167 6.9 7.225C5.63333 8.30833 4.65 9.81667 3.95 11.75C3.26667 13.6667 2.925 15.8583 2.925 18.325C2.925 19.3583 3.025 20.275 3.225 21.075C3.44167 21.875 3.70833 22.5 4.025 22.95C4.35833 23.3833 4.675 23.6 4.975 23.6C5.39167 23.6 5.70833 23.025 5.925 21.875L6.75 17.15C6.1 17.05 5.81667 17.0083 5.9 17.025C5.4 16.9417 5.075 16.7917 4.925 16.575C4.775 16.3417 4.7 16.05 4.7 15.7C4.7 15.3333 4.8 15.0417 5 14.825C5.21667 14.6083 5.50833 14.5 5.875 14.5C6.04167 14.5 6.16667 14.5083 6.25 14.525C6.65 14.5917 6.95833 14.6333 7.175 14.65C7.39167 13.35 7.7 11.6083 8.1 9.425C8.2 8.85833 8.425 8.45833 8.775 8.225C9.14167 7.975 9.56667 7.85 10.05 7.85C10.6 7.85 10.9917 7.95833 11.225 8.175C11.475 8.375 11.6 8.7 11.6 9.15C11.6 9.41667 11.5833 9.63333 11.55 9.8L10.725 14.65ZM34.1922 18.425C34.4089 18.425 34.5755 18.525 34.6922 18.725C34.8255 18.925 34.8922 19.2 34.8922 19.55C34.8922 20.2167 34.7339 20.7333 34.4172 21.1C33.6505 21.9833 32.8589 22.7083 32.0422 23.275C31.2422 23.8417 30.3255 24.125 29.2922 24.125C28.4422 24.125 27.8005 23.8833 27.3672 23.4C26.9339 22.9 26.7172 22.1833 26.7172 21.25C26.7172 20.7833 26.8339 19.95 27.0672 18.75C27.2839 17.7 27.3922 16.975 27.3922 16.575C27.3922 16.3083 27.3005 16.175 27.1172 16.175C26.9005 16.175 26.5922 16.4583 26.1922 17.025C25.7922 17.575 25.3922 18.3083 24.9922 19.225C24.5922 20.1417 24.2672 21.1083 24.0172 22.125C23.7005 23.4583 22.9172 24.125 21.6672 24.125C21.1672 24.125 20.8339 23.95 20.6672 23.6C20.5172 23.2333 20.4422 22.5833 20.4422 21.65C20.4422 21.1167 20.4505 20.6917 20.4672 20.375L20.4922 18.375C20.4922 15.8083 20.7505 13.1333 21.2672 10.35C21.8005 7.56667 22.5755 5.23333 23.5922 3.35C24.6255 1.45 25.8589 0.499999 27.2922 0.499999C28.0589 0.499999 28.6755 0.833332 29.1422 1.5C29.6255 2.15 29.8672 3 29.8672 4.05C29.8672 5.73333 29.3755 7.48333 28.3922 9.3C27.4089 11.1 25.8089 13.2083 23.5922 15.625C23.5422 16.4917 23.5172 17.3833 23.5172 18.3C24.0672 16.8833 24.6755 15.7333 25.3422 14.85C26.0255 13.95 26.6922 13.3083 27.3422 12.925C28.0089 12.5417 28.6172 12.35 29.1672 12.35C30.2505 12.35 30.7922 12.8917 30.7922 13.975C30.7922 14.625 30.6089 15.8 30.2422 17.5C29.9255 18.95 29.7672 19.9083 29.7672 20.375C29.7672 21.0417 30.0089 21.375 30.4922 21.375C30.8255 21.375 31.2172 21.175 31.6672 20.775C32.1339 20.3583 32.7505 19.6917 33.5172 18.775C33.7172 18.5417 33.9422 18.425 34.1922 18.425ZM26.7672 2.975C26.4672 2.975 26.1339 3.40833 25.7672 4.275C25.4005 5.125 25.0422 6.28333 24.6922 7.75C24.3589 9.2 24.0839 10.7833 23.8672 12.5C24.9005 11.2833 25.7505 9.95833 26.4172 8.525C27.1005 7.09167 27.4422 5.79167 27.4422 4.625C27.4422 4.09167 27.3839 3.68333 27.2672 3.4C27.1505 3.11667 26.9839 2.975 26.7672 2.975ZM45.616 16.325C45.8327 16.325 45.9993 16.4333 46.116 16.65C46.2327 16.8667 46.291 17.1417 46.291 17.475C46.291 18.275 46.0494 18.75 45.566 18.9C44.566 19.25 43.466 19.45 42.266 19.5C41.9493 20.9 41.3243 22.025 40.391 22.875C39.4577 23.7083 38.3993 24.125 37.216 24.125C36.216 24.125 35.3577 23.8833 34.641 23.4C33.941 22.9167 33.4077 22.275 33.041 21.475C32.6743 20.675 32.491 19.8083 32.491 18.875C32.491 17.6083 32.7327 16.4833 33.216 15.5C33.6993 14.5 34.366 13.725 35.216 13.175C36.066 12.6083 37.0077 12.325 38.041 12.325C39.3077 12.325 40.3243 12.7667 41.091 13.65C41.8743 14.5167 42.3327 15.5917 42.466 16.875C43.2493 16.825 44.1827 16.6583 45.266 16.375C45.3993 16.3417 45.516 16.325 45.616 16.325ZM37.416 21.475C37.9493 21.475 38.4077 21.2583 38.791 20.825C39.191 20.3917 39.4577 19.7667 39.591 18.95C39.0743 18.6 38.6743 18.1417 38.391 17.575C38.1243 17.0083 37.991 16.4083 37.991 15.775C37.991 15.5083 38.016 15.2417 38.066 14.975H37.941C37.2743 14.975 36.716 15.3 36.266 15.95C35.8327 16.5833 35.616 17.4833 35.616 18.65C35.616 19.5667 35.791 20.2667 36.141 20.75C36.5077 21.2333 36.9327 21.475 37.416 21.475ZM55.9301 18.425C56.1467 18.425 56.3134 18.525 56.4301 18.725C56.5634 18.925 56.6301 19.2 56.6301 19.55C56.6301 20.2167 56.4717 20.7333 56.1551 21.1C55.4384 21.9833 54.6551 22.7083 53.8051 23.275C52.9551 23.8417 51.9801 24.125 50.8801 24.125C47.4801 24.125 45.7801 21.7333 45.7801 16.95C45.7801 16.2167 45.8051 15.475 45.8551 14.725H44.8801C44.3801 14.725 44.0384 14.6333 43.8551 14.45C43.6884 14.2667 43.6051 13.975 43.6051 13.575C43.6051 12.6417 43.9801 12.175 44.7301 12.175H46.1551C46.4384 10.3417 46.8717 8.66667 47.4551 7.15C48.0384 5.63333 48.7384 4.425 49.5551 3.525C50.3884 2.625 51.2801 2.175 52.2301 2.175C52.9301 2.175 53.4801 2.48333 53.8801 3.1C54.2801 3.71667 54.4801 4.49167 54.4801 5.425C54.4801 8.00833 53.3967 10.2583 51.2301 12.175H54.0301C54.2967 12.175 54.4884 12.2333 54.6051 12.35C54.7217 12.4667 54.7801 12.6833 54.7801 13C54.7801 14.15 53.8384 14.725 51.9551 14.725H48.9051C48.8717 15.5583 48.8551 16.2083 48.8551 16.675C48.8551 18.4083 49.0551 19.625 49.4551 20.325C49.8717 21.025 50.5217 21.375 51.4051 21.375C52.1217 21.375 52.7551 21.1583 53.3051 20.725C53.8551 20.2917 54.5051 19.6417 55.2551 18.775C55.4551 18.5417 55.6801 18.425 55.9301 18.425ZM51.5551 4.575C51.3051 4.575 51.0217 4.89167 50.7051 5.525C50.4051 6.14167 50.1134 7.00833 49.8301 8.125C49.5634 9.225 49.3384 10.45 49.1551 11.8C50.1384 10.95 50.8717 10 51.3551 8.95C51.8551 7.88333 52.1051 6.91667 52.1051 6.05C52.1051 5.06667 51.9217 4.575 51.5551 4.575ZM67.3445 16.325C67.5612 16.325 67.7279 16.4333 67.8445 16.65C67.9612 16.8667 68.0195 17.1417 68.0195 17.475C68.0195 18.275 67.7779 18.75 67.2945 18.9C66.2945 19.25 65.1945 19.45 63.9945 19.5C63.6779 20.9 63.0529 22.025 62.1195 22.875C61.1862 23.7083 60.1279 24.125 58.9445 24.125C57.9445 24.125 57.0862 23.8833 56.3695 23.4C55.6695 22.9167 55.1362 22.275 54.7695 21.475C54.4029 20.675 54.2195 19.8083 54.2195 18.875C54.2195 17.6083 54.4612 16.4833 54.9445 15.5C55.4279 14.5 56.0945 13.725 56.9445 13.175C57.7945 12.6083 58.7362 12.325 59.7695 12.325C61.0362 12.325 62.0529 12.7667 62.8195 13.65C63.6029 14.5167 64.0612 15.5917 64.1945 16.875C64.9779 16.825 65.9112 16.6583 66.9945 16.375C67.1279 16.3417 67.2445 16.325 67.3445 16.325ZM59.1445 21.475C59.6779 21.475 60.1362 21.2583 60.5195 20.825C60.9195 20.3917 61.1862 19.7667 61.3195 18.95C60.8029 18.6 60.4029 18.1417 60.1195 17.575C59.8529 17.0083 59.7195 16.4083 59.7195 15.775C59.7195 15.5083 59.7445 15.2417 59.7945 14.975H59.6695C59.0029 14.975 58.4445 15.3 57.9945 15.95C57.5612 16.5833 57.3445 17.4833 57.3445 18.65C57.3445 19.5667 57.5195 20.2667 57.8695 20.75C58.2362 21.2333 58.6612 21.475 59.1445 21.475ZM70.4738 24.125C69.8572 24.125 69.4155 23.9917 69.1488 23.725C68.8822 23.4417 68.7488 22.9167 68.7488 22.15C68.7488 21.6333 68.7988 20.975 68.8988 20.175C69.0155 19.3583 69.1988 18.2417 69.4488 16.825C69.8822 14.2083 70.2238 11.9417 70.4738 10.025C70.6238 8.825 70.6988 7.825 70.6988 7.025C70.6988 6.275 70.4238 5.9 69.8738 5.9C69.4405 5.9 68.9155 6.125 68.2988 6.575C67.6988 7.00833 67.0322 7.70833 66.2988 8.675C66.0655 8.99167 65.8072 9.15 65.5238 9.15C65.2905 9.15 65.0822 9.04167 64.8988 8.825C64.7322 8.59167 64.6488 8.33333 64.6488 8.05C64.6488 7.78333 64.6988 7.51667 64.7988 7.25C64.9155 6.96667 65.0988 6.65 65.3488 6.3C66.1488 5.18333 67.0405 4.325 68.0238 3.725C69.0072 3.10833 69.9905 2.8 70.9738 2.8C71.8905 2.8 72.5905 3.09167 73.0738 3.675C73.5738 4.25833 73.8238 5.10833 73.8238 6.225C73.8238 6.675 73.7822 7.20833 73.6988 7.825C73.6155 8.425 73.5405 8.91667 73.4738 9.3C73.4072 9.68333 73.3572 9.95 73.3238 10.1C74.2738 7.38333 75.3405 5.49167 76.5238 4.425C77.7072 3.34167 79.0072 2.8 80.4238 2.8C81.5072 2.8 82.3572 3.18333 82.9738 3.95C83.6072 4.71667 83.9238 5.8 83.9238 7.2C83.9238 7.75 83.8488 8.43333 83.6988 9.25C84.5322 6.95 85.5072 5.3 86.6238 4.3C87.7405 3.3 89.0238 2.8 90.4738 2.8C91.6405 2.8 92.5322 3.175 93.1488 3.925C93.7822 4.675 94.0988 5.725 94.0988 7.075C94.0988 7.80833 93.9905 8.7 93.7738 9.75L92.2488 16.9C92.0822 17.7333 91.9988 18.45 91.9988 19.05C91.9988 19.75 92.1572 20.275 92.4738 20.625C92.8072 20.975 93.2655 21.15 93.8488 21.15C94.3988 21.15 94.9322 20.9667 95.4488 20.6C95.9822 20.2333 96.6072 19.625 97.3238 18.775C97.5238 18.5417 97.7488 18.425 97.9988 18.425C98.2155 18.425 98.3822 18.525 98.4988 18.725C98.6322 18.925 98.6988 19.2 98.6988 19.55C98.6988 20.2 98.5405 20.7167 98.2238 21.1C97.3572 22.15 96.4988 22.9167 95.6488 23.4C94.7988 23.8833 93.9072 24.125 92.9738 24.125C91.5572 24.125 90.4488 23.7083 89.6488 22.875C88.8488 22.025 88.4488 20.8917 88.4488 19.475C88.4488 18.4917 88.6488 17.0667 89.0488 15.2L90.0488 10.625C90.0822 10.475 90.1405 10.2083 90.2238 9.825C90.3072 9.44167 90.3738 9.08333 90.4238 8.75C90.4738 8.4 90.4988 8.05833 90.4988 7.725C90.4988 7.14167 90.3822 6.70833 90.1488 6.425C89.9322 6.125 89.6155 5.975 89.1988 5.975C88.4155 5.975 87.5905 6.48333 86.7238 7.5C85.8738 8.5 85.0572 10.1667 84.2738 12.5C83.5072 14.8333 82.8822 17.8667 82.3988 21.6C82.2822 22.6 82.0738 23.275 81.7738 23.625C81.4905 23.9583 81.0238 24.125 80.3738 24.125C79.8072 24.125 79.3905 23.9917 79.1238 23.725C78.8738 23.4583 78.7488 22.9583 78.7488 22.225C78.7488 21.5417 78.8405 20.65 79.0238 19.55C79.2072 18.4333 79.4405 17.125 79.7238 15.625C80.4905 11.5917 80.8738 8.99167 80.8738 7.825C80.8738 7.19167 80.7488 6.725 80.4988 6.425C80.2655 6.125 79.9072 5.975 79.4238 5.975C78.6072 5.975 77.7655 6.44167 76.8988 7.375C76.0322 8.29167 75.1822 9.93333 74.3488 12.3C73.5322 14.65 72.8488 17.8333 72.2988 21.85C72.1822 22.7 72.0072 23.2917 71.7738 23.625C71.5572 23.9583 71.1238 24.125 70.4738 24.125ZM107.834 18.425C108.051 18.425 108.218 18.525 108.334 18.725C108.468 18.925 108.534 19.2 108.534 19.55C108.534 20.2167 108.376 20.7333 108.059 21.1C107.443 21.85 106.568 22.5417 105.434 23.175C104.318 23.8083 103.118 24.125 101.834 24.125C100.084 24.125 98.726 23.65 97.7594 22.7C96.7927 21.75 96.3094 20.45 96.3094 18.8C96.3094 17.65 96.551 16.5833 97.0344 15.6C97.5177 14.6 98.1844 13.8083 99.0344 13.225C99.901 12.6417 100.876 12.35 101.959 12.35C102.926 12.35 103.701 12.6417 104.284 13.225C104.868 13.7917 105.159 14.5667 105.159 15.55C105.159 16.7 104.743 17.6917 103.909 18.525C103.093 19.3417 101.701 19.9917 99.7344 20.475C100.151 21.2417 100.943 21.625 102.109 21.625C102.859 21.625 103.709 21.3667 104.659 20.85C105.626 20.3167 106.459 19.625 107.159 18.775C107.359 18.5417 107.584 18.425 107.834 18.425ZM101.534 14.8C100.918 14.8 100.393 15.1583 99.9594 15.875C99.5427 16.5917 99.3344 17.4583 99.3344 18.475V18.525C100.318 18.2917 101.093 17.9417 101.659 17.475C102.226 17.0083 102.509 16.4667 102.509 15.85C102.509 15.5333 102.418 15.2833 102.234 15.1C102.068 14.9 101.834 14.8 101.534 14.8ZM108.274 24.125C107.64 24.125 107.19 23.7917 106.924 23.125C106.674 22.4583 106.549 21.3917 106.549 19.925C106.549 17.7583 106.857 15.7 107.474 13.75C107.624 13.2667 107.865 12.9167 108.199 12.7C108.549 12.4667 109.032 12.35 109.649 12.35C109.982 12.35 110.215 12.3917 110.349 12.475C110.482 12.5583 110.549 12.7167 110.549 12.95C110.549 13.2167 110.424 13.8167 110.174 14.75C110.007 15.4167 109.874 16 109.774 16.5C109.674 16.9833 109.59 17.5917 109.524 18.325C109.974 17.025 110.507 15.925 111.124 15.025C111.757 14.125 112.399 13.4583 113.049 13.025C113.715 12.575 114.34 12.35 114.924 12.35C115.507 12.35 115.915 12.4833 116.149 12.75C116.399 13.0167 116.524 13.425 116.524 13.975C116.524 14.5083 116.365 15.475 116.049 16.875C115.915 17.475 115.824 17.925 115.774 18.225C116.607 16.175 117.532 14.6833 118.549 13.75C119.565 12.8167 120.515 12.35 121.399 12.35C122.482 12.35 123.024 12.8917 123.024 13.975C123.024 14.625 122.84 15.8 122.474 17.5C122.157 18.95 121.999 19.9083 121.999 20.375C121.999 21.0417 122.24 21.375 122.724 21.375C123.057 21.375 123.449 21.175 123.899 20.775C124.365 20.3583 124.982 19.6917 125.749 18.775C125.949 18.5417 126.174 18.425 126.424 18.425C126.64 18.425 126.807 18.525 126.924 18.725C127.057 18.925 127.124 19.2 127.124 19.55C127.124 20.2167 126.965 20.7333 126.649 21.1C125.932 21.9833 125.157 22.7083 124.324 23.275C123.507 23.8417 122.574 24.125 121.524 24.125C120.674 24.125 120.032 23.8833 119.599 23.4C119.165 22.9 118.949 22.1833 118.949 21.25C118.949 20.7833 119.065 19.95 119.299 18.75C119.515 17.7 119.624 16.975 119.624 16.575C119.624 16.3083 119.532 16.175 119.349 16.175C119.132 16.175 118.824 16.4583 118.424 17.025C118.024 17.575 117.624 18.3083 117.224 19.225C116.824 20.1417 116.499 21.1083 116.249 22.125C116.065 22.925 115.849 23.4583 115.599 23.725C115.365 23.9917 114.982 24.125 114.449 24.125C113.899 24.125 113.482 23.8667 113.199 23.35C112.932 22.8167 112.799 22.175 112.799 21.425C112.799 20.7917 112.882 19.875 113.049 18.675C113.182 17.6083 113.249 16.9083 113.249 16.575C113.249 16.3083 113.157 16.175 112.974 16.175C112.724 16.175 112.407 16.475 112.024 17.075C111.64 17.675 111.265 18.4417 110.899 19.375C110.549 20.3083 110.265 21.225 110.049 22.125C109.865 22.9083 109.649 23.4417 109.399 23.725C109.165 23.9917 108.79 24.125 108.274 24.125ZM137.852 16.325C138.069 16.325 138.236 16.4333 138.352 16.65C138.469 16.8667 138.527 17.1417 138.527 17.475C138.527 18.275 138.286 18.75 137.802 18.9C136.802 19.25 135.702 19.45 134.502 19.5C134.186 20.9 133.561 22.025 132.627 22.875C131.694 23.7083 130.636 24.125 129.452 24.125C128.452 24.125 127.594 23.8833 126.877 23.4C126.177 22.9167 125.644 22.275 125.277 21.475C124.911 20.675 124.727 19.8083 124.727 18.875C124.727 17.6083 124.969 16.4833 125.452 15.5C125.936 14.5 126.602 13.725 127.452 13.175C128.302 12.6083 129.244 12.325 130.277 12.325C131.544 12.325 132.561 12.7667 133.327 13.65C134.111 14.5167 134.569 15.5917 134.702 16.875C135.486 16.825 136.419 16.6583 137.502 16.375C137.636 16.3417 137.752 16.325 137.852 16.325ZM129.652 21.475C130.186 21.475 130.644 21.2583 131.027 20.825C131.427 20.3917 131.694 19.7667 131.827 18.95C131.311 18.6 130.911 18.1417 130.627 17.575C130.361 17.0083 130.227 16.4083 130.227 15.775C130.227 15.5083 130.252 15.2417 130.302 14.975H130.177C129.511 14.975 128.952 15.3 128.502 15.95C128.069 16.5833 127.852 17.4833 127.852 18.65C127.852 19.5667 128.027 20.2667 128.377 20.75C128.744 21.2333 129.169 21.475 129.652 21.475ZM138.157 24.125C137.523 24.125 137.073 23.7917 136.807 23.125C136.557 22.4583 136.432 21.3917 136.432 19.925C136.432 17.7583 136.74 15.7 137.357 13.75C137.507 13.2667 137.748 12.9167 138.082 12.7C138.432 12.4667 138.915 12.35 139.532 12.35C139.865 12.35 140.098 12.3917 140.232 12.475C140.365 12.5583 140.432 12.7167 140.432 12.95C140.432 13.2167 140.307 13.8167 140.057 14.75C139.89 15.4167 139.757 16 139.657 16.5C139.557 17 139.473 17.6167 139.407 18.35C139.957 16.9167 140.573 15.75 141.257 14.85C141.94 13.95 142.607 13.3083 143.257 12.925C143.923 12.5417 144.532 12.35 145.082 12.35C146.165 12.35 146.707 12.8917 146.707 13.975C146.707 14.1917 146.632 14.7167 146.482 15.55C146.348 16.2167 146.282 16.6333 146.282 16.8C146.282 17.3833 146.49 17.675 146.907 17.675C147.373 17.675 147.973 17.3083 148.707 16.575C148.923 16.3583 149.148 16.25 149.382 16.25C149.598 16.25 149.765 16.35 149.882 16.55C150.015 16.7333 150.082 16.9833 150.082 17.3C150.082 17.9167 149.915 18.4 149.582 18.75C149.115 19.2333 148.565 19.65 147.932 20C147.315 20.3333 146.657 20.5 145.957 20.5C145.073 20.5 144.398 20.275 143.932 19.825C143.482 19.375 143.257 18.7667 143.257 18C143.257 17.75 143.282 17.5 143.332 17.25C143.365 16.9167 143.382 16.6917 143.382 16.575C143.382 16.3083 143.29 16.175 143.107 16.175C142.857 16.175 142.523 16.4583 142.107 17.025C141.707 17.575 141.307 18.3083 140.907 19.225C140.507 20.1417 140.182 21.1083 139.932 22.125C139.748 22.9083 139.532 23.4417 139.282 23.725C139.048 23.9917 138.673 24.125 138.157 24.125ZM156.509 12.35C156.892 12.35 157.159 12.4 157.309 12.5C157.459 12.6 157.534 12.7667 157.534 13C157.534 13.4 157.317 14.825 156.884 17.275C156.5 19.625 156.275 21.0167 156.209 21.45C155.592 25.7333 154.742 29.125 153.659 31.625C152.575 34.125 151.134 35.375 149.334 35.375C148.484 35.375 147.792 35.1083 147.259 34.575C146.725 34.0583 146.459 33.375 146.459 32.525C146.459 31.7417 146.634 30.9417 146.984 30.125C147.35 29.3083 148.017 28.3667 148.984 27.3C149.967 26.25 151.35 25.0417 153.134 23.675L153.209 23.1C153.325 22.4833 153.459 21.6 153.609 20.45C153.275 21.65 152.809 22.5667 152.209 23.2C151.609 23.8167 150.975 24.125 150.309 24.125C149.559 24.125 148.942 23.7833 148.459 23.1C147.992 22.4 147.759 21.5333 147.759 20.5C147.759 19.25 147.842 18.1083 148.009 17.075C148.175 16.025 148.45 14.9167 148.834 13.75C149 13.25 149.234 12.8917 149.534 12.675C149.834 12.4583 150.309 12.35 150.959 12.35C151.325 12.35 151.575 12.4083 151.709 12.525C151.859 12.6417 151.934 12.8167 151.934 13.05C151.934 13.1833 151.842 13.6333 151.659 14.4C151.492 15.0167 151.359 15.575 151.259 16.075C151.125 16.7583 151.009 17.4167 150.909 18.05C150.809 18.6667 150.759 19.175 150.759 19.575C150.759 20.2083 150.934 20.525 151.284 20.525C151.534 20.525 151.842 20.275 152.209 19.775C152.592 19.275 152.992 18.5167 153.409 17.5C153.842 16.4833 154.259 15.2333 154.659 13.75C154.792 13.25 154.992 12.8917 155.259 12.675C155.542 12.4583 155.959 12.35 156.509 12.35ZM149.609 32.95C150.025 32.95 150.492 32.4667 151.009 31.5C151.525 30.5333 152.042 28.925 152.559 26.675C151.275 27.7583 150.342 28.7417 149.759 29.625C149.192 30.525 148.909 31.3083 148.909 31.975C148.909 32.2583 148.959 32.4917 149.059 32.675C149.175 32.8583 149.359 32.95 149.609 32.95Z" fill="black"/>
</svg>